<?xml version="1.0" encoding="utf-8"?>
<!-- Generator: Adobe Illustrator 27.5.0, SVG Export Plug-In . SVG Version: 6.00 Build 0)  -->
<svg version="1.1" id="Capa_1" xmlns="http://www.w3.org/2000/svg" xmlns:xlink="http://www.w3.org/1999/xlink" x="0px" y="0px"
	 viewBox="0 0 425.197 383.196" style="enable-background:new 0 0 425.197 383.196;" xml:space="preserve">
<rect x="0" style="fill:#FFFFFF;" width="425.197" height="383.196"/>
<g>
	<g>
		<rect x="76.13" y="142.42" style="fill:#A3D8E5;" width="242.863" height="181.705"/>
		<polygon style="fill:#A3D8E5;" points="76.156,142.42 318.572,142.42 194.841,60.336 		"/>
		<g>
			<path style="fill:#F8EED4;" d="M224.711,100.411c-6.702,4.924-12.789,10.267-18.351,15.891
				c-10.164,10.277-19.819,21.081-26.424,32.834c-9.757,17.376-15.143,36.896-11.066,55.63c4.097,18.851,17.317,36.29,38.756,47.666
				c21.976,11.653,47.349,15.689,74.186,15.87c13.033,0.092,25.311-1.289,36.759-5.564V154.346h-0.34l-88.053-58.414
				C228.097,97.535,226.249,99.28,224.711,100.411z"/>
			<path style="fill:#EDEDED;" d="M287.701,291.141c-30.675,1.678-63.451-1.064-91.19-11.133
				c-28.225-10.252-51.031-26.987-63.72-48.037c-12.521-20.773-14.079-44.463-8.417-66.568c6.023-23.49,19.723-44.757,37.905-64.536
				c10.004-10.883,21.192-20.572,33.082-30.348c1.983-1.629,4.231-3.553,6.713-5.38l-7.233-4.803L76.156,142.42H76.13v181.705
				h242.863v-39.122C309.313,288.327,298.905,290.53,287.701,291.141z"/>
		</g>
		<rect x="76.13" y="306.32" style="fill:#00B1C3;" width="242.863" height="17.805"/>
		<polygon style="fill:#C6C6C6;" points="318.994,141.12 197.224,60.336 76.762,143.657 76.762,172.449 197.224,89.13 
			318.994,169.914 		"/>
		<g>
			<polygon style="fill:#8F4D3D;" points="197.224,75.343 338.939,169.358 367.891,159.77 197.224,46.55 33.527,159.77 
				61.298,169.358 			"/>
			<polygon style="fill:#B2B2B2;" points="47.821,164.336 196.888,61.232 352.3,164.336 367.292,159.372 197.224,46.55 
				33.881,159.524 			"/>
		</g>
		<g>
			<path style="fill:#8F4D3D;" d="M300.605,182.119h-75.198v142.007h75.198V182.119z M231.792,314.64V191.605h62.431V314.64H231.792
				z"/>
			<g>
				<path style="fill:#5E5E5E;" d="M300.605,182.119h-75.198v142.007h75.198V182.119z M227.946,318.172V188.071h68.894v130.101
					H227.946z"/>
				<rect x="231.792" y="191.605" style="fill:#5C3124;" width="62.431" height="123.034"/>
			</g>
			<path style="fill:#DADADA;" d="M243.545,264.072c1.885-18.204,7.232-38.679,18.813-50.147c6.35-6.284,13.978-10.273,21.81-12.024
				c3.31-0.739,6.689-1.35,10.054-1.533v-8.762h-62.431V314.64h19.424C243.473,300.182,241.766,281.245,243.545,264.072z"/>
			<path style="fill:#F9B233;" d="M289.844,253.414c0,3.339-2.544,6.048-5.679,6.048c-3.14,0-5.679-2.71-5.679-6.048
				c0-3.342,2.539-6.047,5.679-6.047C287.3,247.367,289.844,250.072,289.844,253.414z"/>
		</g>
		<g>
			<rect x="92.081" y="176.054" style="fill:#552D20;" width="101.467" height="100.9"/>
			<rect x="99.712" y="183.642" style="fill:#341F0F;" width="86.203" height="85.723"/>
			<rect x="104.498" y="189.152" style="fill:#6EBEBF;" width="35.171" height="34.97"/>
			<rect x="145.992" y="189.152" style="fill:#6EBEBF;" width="35.171" height="34.97"/>
			<rect x="104.482" y="228.884" style="fill:#6EBEBF;" width="35.171" height="34.973"/>
			<rect x="145.975" y="228.884" style="fill:#6EBEBF;" width="35.171" height="34.973"/>
			<g>
				<polygon style="fill:#AFD3D3;" points="104.498,191.681 139.653,206.638 139.653,208.051 104.498,193.317 				"/>
				<polygon style="fill:#AFD3D3;" points="139.669,209.353 139.669,210.842 104.482,196.593 104.482,194.879 				"/>
				<polygon style="fill:#AFD3D3;" points="104.482,197.857 139.669,212.29 139.669,213.704 104.498,199.493 				"/>
			</g>
			<g>
				<polygon style="fill:#AFD3D3;" points="104.498,236.772 139.653,251.726 139.653,253.143 104.498,238.408 				"/>
				<polygon style="fill:#AFD3D3;" points="139.669,254.444 139.669,255.933 104.482,241.681 104.482,239.971 				"/>
				<polygon style="fill:#AFD3D3;" points="104.482,242.949 139.669,257.382 139.669,258.796 104.498,244.585 				"/>
			</g>
			<g>
				<polygon style="fill:#AFD3D3;" points="146.001,235.357 181.153,250.315 181.153,251.729 146.001,236.995 				"/>
				<polygon style="fill:#AFD3D3;" points="181.17,253.032 181.17,254.518 145.985,240.27 145.985,238.557 				"/>
				<polygon style="fill:#AFD3D3;" points="145.985,241.536 181.17,255.968 181.17,257.382 146.001,243.17 				"/>
			</g>
			<g>
				<polygon style="fill:#AFD3D3;" points="146.001,197.038 181.153,211.996 181.153,213.409 146.001,198.676 				"/>
				<polygon style="fill:#AFD3D3;" points="181.17,214.71 181.17,216.199 145.985,201.949 145.985,200.238 				"/>
				<polygon style="fill:#AFD3D3;" points="145.985,203.215 181.17,217.648 181.17,219.063 146.001,204.85 				"/>
			</g>
		</g>
	</g>
	<g>
		<path style="fill:#799431;" d="M28.677,329.425c0.34,0.989,2.938,7.221,14.123,7.221c0,0,0.002,0,0.006,0
			c1.489,0,3.094-0.11,4.765-0.336c0.236-0.03,0.479-0.05,0.716-0.05h92.743c3.377,0,8.063-1.722,11.4-4.19
			c4.421-3.271,4.683-9.175,2.984-13.575c-1.96-5.072-6.417-8.753-10.601-8.753c-1.151,0-2.313,0.273-3.446,0.815
			c-0.32,0.153-0.668,0.374-1.077,0.701c-1.917,2.081-3.828,3.521-5.127,4.378c-0.414,0.287-0.926,0.597-1.436,0.865
			c-0.036,0.021-0.074,0.04-0.108,0.057c-2.654,1.327-5.885,0.271-7.244-2.368c-1.357-2.643-0.34-5.886,2.283-7.276
			c0.042-0.023,0.241-0.14,0.531-0.331c0.53-0.365,1.231-1.022,1.974-1.715c0.493-0.464,1.003-0.942,1.561-1.426
			c4.328-5.079,4.418-11.506,0.27-19.117l0,0c-0.004,0-5.037-8.554-12.652-8.554c-1.661,0-3.414,0.405-5.206,1.203
			c-1.563,0.699-3.368,0.617-4.863-0.223c-1.495-0.838-2.504-2.335-2.722-4.034c-0.227-1.623-2.665-16.098-17.082-16.098
			c-0.113,0-0.248-0.006-0.361-0.014c-0.025,0-0.185-0.006-0.434-0.006c-5.678,0-18.906,1.908-19.105,19.566
			c-0.018,1.756-0.886,3.391-2.328,4.396c-1.438,1-3.274,1.244-4.928,0.647l0,0c-0.002,0-2.444-0.823-5.739-0.823
			c-6.168,0-11.024,2.793-14.443,8.298c-0.722,1.371-3.717,8.4,5.604,15.412c1.889,1.421,2.641,3.903,1.854,6.136
			c-0.782,2.229-2.898,3.69-5.288,3.617l-0.277-0.003c-4.367,0-12.603,1.14-15.78,5.411c-1.734,2.335-1.929,5.637-0.589,10.097
			c0.004,0.017,0.01,0.026,0.012,0.035c0,0.008,0.002,0.011,0.002,0.015C28.677,329.422,28.671,329.401,28.677,329.425z"/>
		<g>
			<path style="fill:#C6C6C6;" d="M153.769,330.118H77.727c-0.197,0-0.396,0.012-0.591,0.04c-1.366,0.18-2.681,0.273-3.906,0.273
				h-0.002c-9.171-0.001-11.302-5.111-11.582-5.921c-0.004-0.021,0-0.002-0.007-0.02c0-0.004,0-0.009-0.003-0.011
				c0-0.003-0.006-0.015-0.008-0.029c-1.099-3.658-0.939-6.366,0.483-8.279c2.607-3.501,9.358-4.436,12.941-4.436h0.223
				c1.961,0.063,3.697-1.136,4.341-2.965c0.643-1.829,0.026-3.863-1.522-5.031c-7.645-5.749-5.188-11.514-4.596-12.635
				c2.803-4.518,6.786-6.805,11.842-6.805c2.704,0,4.704,0.676,4.704,0.676c1.358,0.489,2.866,0.289,4.045-0.533
				c1.182-0.821,1.892-2.163,1.911-3.603c0.105-9.488,4.794-13.414,9.329-15.003c-2.215-4.395-6.536-9.219-14.86-9.219
				c-0.113,0-0.248-0.006-0.361-0.014c-0.025,0-0.185-0.006-0.434-0.006c-5.678,0-18.906,1.908-19.105,19.566
				c-0.018,1.756-0.886,3.391-2.328,4.396c-1.438,1-3.274,1.244-4.928,0.647c-0.002,0-2.444-0.823-5.739-0.823
				c-6.168,0-11.024,2.793-14.443,8.298c-0.722,1.371-3.717,8.4,5.604,15.412c1.889,1.421,2.641,3.903,1.854,6.136
				c-0.782,2.229-2.898,3.69-5.288,3.617l-0.277-0.003c-4.367,0-12.603,1.14-15.78,5.411c-1.734,2.335-1.929,5.637-0.589,10.097
				c0.004,0.017,0.01,0.026,0.012,0.035c0,0.008,0.002,0.011,0.002,0.015c0.01,0.02,0.004-0.001,0.01,0.023
				c0.34,0.989,2.938,7.221,14.123,7.221c0,0,0.002,0,0.006,0c1.489,0,3.094-0.11,4.765-0.336c0.236-0.03,0.479-0.05,0.716-0.05
				h92.743c3.377,0,8.063-1.722,11.4-4.19c0.783-0.583,1.394-1.264,1.931-1.99C154.163,330.094,153.958,330.118,153.769,330.118z"/>
		</g>
		<path style="fill:#C6C6C6;" d="M110.272,276.752c0,0-0.873,1.18-2.179,2.946c-0.29,0.452-0.632,0.897-0.938,1.403
			c-0.332,0.487-0.644,1.014-0.953,1.553c-0.342,0.521-0.563,1.118-0.886,1.663c-0.194,0.597-0.552,1.147-0.684,1.759l-0.298,0.89
			l-0.186,0.901c-0.168,0.596-0.19,1.197-0.252,1.788c-0.114,0.594-0.007,1.175-0.028,1.744c-0.036,0.573,0.067,1.107,0.124,1.623
			c0.09,0.503,0.057,1.016,0.184,1.431c0.103,0.418,0.164,0.808,0.226,1.125c0.106,0.646,0.15,1.048,0.15,1.048
			s-0.288-0.245-0.761-0.726c-0.229-0.244-0.521-0.542-0.82-0.908c-0.342-0.347-0.564-0.831-0.859-1.344
			c-0.282-0.518-0.632-1.08-0.794-1.755c-0.174-0.664-0.46-1.368-0.478-2.141c-0.066-0.767-0.149-1.573-0.002-2.38
			c0.058-0.405,0.08-0.821,0.178-1.222l0.352-1.184c0.219-0.804,0.653-1.499,1.002-2.223c0.445-0.65,0.845-1.333,1.357-1.867
			c0.481-0.569,0.987-1.073,1.507-1.501c0.493-0.457,1.041-0.785,1.513-1.115C108.707,277.006,110.272,276.752,110.272,276.752z"/>
		<path style="fill:#C6C6C6;" d="M125.698,308.277c0,0-1.467-0.001-3.668-0.007c-0.531,0.035-1.094,0.023-1.685,0.076
			c-0.588,0.02-1.194,0.081-1.812,0.153c-0.625,0.03-1.235,0.206-1.865,0.27c-0.596,0.197-1.253,0.236-1.822,0.49l-0.892,0.29
			l-0.838,0.382c-0.578,0.217-1.075,0.557-1.591,0.859c-0.544,0.259-0.948,0.688-1.418,1.01c-0.481,0.31-0.856,0.71-1.236,1.06
			c-0.351,0.372-0.782,0.651-1.043,0.999c-0.275,0.33-0.551,0.606-0.773,0.845c-0.457,0.472-0.753,0.745-0.753,0.745
			s0.026-0.378,0.136-1.044c0.061-0.328,0.126-0.739,0.244-1.197c0.074-0.483,0.336-0.947,0.573-1.489
			c0.248-0.536,0.494-1.15,0.942-1.678c0.431-0.539,0.829-1.184,1.44-1.656c0.578-0.51,1.18-1.056,1.919-1.413
			c0.358-0.193,0.708-0.422,1.088-0.581l1.163-0.42c0.774-0.297,1.595-0.359,2.383-0.508c0.788-0.029,1.573-0.11,2.31-0.015
			c0.745,0.049,1.448,0.16,2.101,0.326c0.655,0.124,1.247,0.372,1.796,0.558C124.565,307.169,125.695,308.277,125.698,308.277z"/>
	</g>
	<g>
		<path style="fill:#799431;" d="M269.715,329.425c0.34,0.989,2.938,7.221,14.121,7.221c0,0,0.004,0,0.008,0
			c1.489,0,3.094-0.11,4.763-0.336c0.236-0.03,0.479-0.05,0.718-0.05h92.743c3.377,0,8.063-1.722,11.398-4.19
			c4.421-3.271,4.684-9.175,2.984-13.575c-1.959-5.072-6.416-8.753-10.601-8.753c-1.149,0-2.311,0.273-3.444,0.815
			c-0.32,0.153-0.668,0.374-1.077,0.701c-1.917,2.081-3.83,3.521-5.127,4.378c-0.414,0.287-0.926,0.597-1.436,0.865
			c-0.036,0.021-0.074,0.04-0.108,0.057c-2.654,1.327-5.885,0.271-7.244-2.368c-1.359-2.643-0.34-5.886,2.281-7.276
			c0.044-0.023,0.242-0.14,0.532-0.331c0.53-0.365,1.23-1.022,1.973-1.715c0.495-0.464,1.003-0.942,1.56-1.426
			c4.329-5.079,4.421-11.506,0.269-19.117l0,0c0,0-5.034-8.554-12.649-8.554c-1.661,0-3.414,0.405-5.208,1.203
			c-1.563,0.699-3.368,0.617-4.862-0.223c-1.494-0.838-2.504-2.335-2.722-4.034c-0.228-1.623-2.664-16.098-17.083-16.098
			c-0.113,0-0.246-0.006-0.361-0.014c-0.023,0-0.184-0.006-0.432-0.006c-5.679,0-18.906,1.908-19.104,19.566
			c-0.02,1.756-0.889,3.391-2.328,4.396c-1.438,1-3.274,1.244-4.928,0.647l0,0c0,0-2.446-0.823-5.739-0.823
			c-6.168,0-11.027,2.793-14.443,8.298c-0.722,1.371-3.719,8.4,5.603,15.412c1.891,1.421,2.643,3.903,1.856,6.136
			c-0.782,2.229-2.898,3.69-5.291,3.617l-0.274-0.003c-4.367,0-12.604,1.14-15.78,5.411c-1.734,2.335-1.929,5.637-0.589,10.097
			c0.004,0.017,0.009,0.026,0.012,0.035c0,0.008,0,0.011,0,0.015C269.715,329.422,269.707,329.401,269.715,329.425z"/>
		<g>
			<path style="fill:#C6C6C6;" d="M394.807,330.118h-76.044c-0.197,0-0.393,0.012-0.589,0.04c-1.366,0.18-2.682,0.273-3.906,0.273
				h-0.004c-9.169-0.001-11.3-5.111-11.582-5.921c-0.004-0.021,0-0.002-0.005-0.02c0-0.004,0-0.009-0.003-0.011
				c-0.002-0.003-0.008-0.015-0.009-0.029c-1.098-3.658-0.938-6.366,0.482-8.279c2.608-3.501,9.358-4.436,12.939-4.436h0.226
				c1.961,0.063,3.697-1.136,4.34-2.965c0.642-1.829,0.027-3.863-1.522-5.031c-7.646-5.749-5.188-11.514-4.596-12.635
				c2.803-4.518,6.786-6.805,11.842-6.805c2.703,0,4.704,0.676,4.704,0.676c1.356,0.489,2.864,0.289,4.045-0.533
				c1.18-0.821,1.89-2.163,1.909-3.603c0.104-9.488,4.796-13.414,9.331-15.003c-2.217-4.395-6.536-9.219-14.862-9.219
				c-0.113,0-0.246-0.006-0.361-0.014c-0.023,0-0.184-0.006-0.432-0.006c-5.679,0-18.906,1.908-19.104,19.566
				c-0.02,1.756-0.889,3.391-2.328,4.396c-1.438,1-3.274,1.244-4.928,0.647c0,0-2.446-0.823-5.739-0.823
				c-6.168,0-11.027,2.793-14.443,8.298c-0.722,1.371-3.719,8.4,5.603,15.412c1.891,1.421,2.643,3.903,1.856,6.136
				c-0.782,2.229-2.898,3.69-5.291,3.617l-0.274-0.003c-4.367,0-12.604,1.14-15.78,5.411c-1.734,2.335-1.929,5.637-0.589,10.097
				c0.004,0.017,0.009,0.026,0.012,0.035c0,0.008,0,0.011,0,0.015c0.012,0.02,0.004-0.001,0.012,0.023
				c0.34,0.989,2.938,7.221,14.121,7.221c0,0,0.004,0,0.008,0c1.489,0,3.094-0.11,4.763-0.336c0.236-0.03,0.479-0.05,0.718-0.05
				h92.743c3.377,0,8.063-1.722,11.398-4.19c0.784-0.583,1.396-1.264,1.933-1.99C395.198,330.094,394.996,330.118,394.807,330.118z"
				/>
		</g>
		<path style="fill:#C6C6C6;" d="M351.309,276.752c0,0-0.872,1.18-2.18,2.946c-0.289,0.452-0.631,0.897-0.936,1.403
			c-0.333,0.487-0.644,1.014-0.953,1.553c-0.344,0.521-0.564,1.118-0.888,1.663c-0.195,0.597-0.55,1.147-0.684,1.759l-0.296,0.89
			l-0.187,0.901c-0.167,0.596-0.189,1.197-0.251,1.788c-0.114,0.594-0.01,1.175-0.03,1.744c-0.034,0.573,0.069,1.107,0.124,1.623
			c0.09,0.503,0.058,1.016,0.186,1.431c0.103,0.418,0.164,0.808,0.224,1.125c0.108,0.646,0.152,1.048,0.152,1.048
			s-0.288-0.245-0.761-0.726c-0.229-0.244-0.521-0.542-0.822-0.908c-0.34-0.347-0.564-0.831-0.857-1.344
			c-0.284-0.518-0.632-1.08-0.795-1.755c-0.175-0.664-0.461-1.368-0.477-2.141c-0.066-0.767-0.149-1.573-0.002-2.38
			c0.056-0.405,0.08-0.821,0.178-1.222l0.352-1.184c0.219-0.804,0.653-1.499,1-2.223c0.447-0.65,0.844-1.333,1.357-1.867
			c0.481-0.569,0.989-1.073,1.509-1.501c0.49-0.457,1.038-0.785,1.513-1.115C349.742,277.006,351.309,276.752,351.309,276.752z"/>
		<path style="fill:#C6C6C6;" d="M366.733,308.277c0,0-1.464-0.001-3.665-0.007c-0.533,0.035-1.095,0.023-1.685,0.076
			c-0.588,0.02-1.195,0.081-1.811,0.153c-0.625,0.03-1.235,0.206-1.865,0.27c-0.597,0.197-1.253,0.236-1.822,0.49l-0.892,0.29
			l-0.838,0.382c-0.58,0.217-1.077,0.557-1.591,0.859c-0.544,0.259-0.95,0.688-1.418,1.01c-0.483,0.31-0.856,0.71-1.237,1.06
			c-0.35,0.372-0.783,0.651-1.043,0.999c-0.274,0.33-0.55,0.606-0.773,0.845c-0.456,0.472-0.754,0.745-0.754,0.745
			s0.027-0.378,0.138-1.044c0.059-0.328,0.126-0.739,0.244-1.197c0.074-0.483,0.334-0.947,0.572-1.489
			c0.249-0.536,0.493-1.15,0.943-1.678c0.43-0.539,0.827-1.184,1.44-1.656c0.576-0.51,1.18-1.056,1.919-1.413
			c0.357-0.193,0.708-0.422,1.086-0.581l1.165-0.42c0.774-0.297,1.594-0.359,2.383-0.508c0.788-0.029,1.571-0.11,2.31-0.015
			c0.745,0.049,1.448,0.16,2.101,0.326c0.655,0.124,1.245,0.372,1.793,0.558C365.603,307.169,366.733,308.277,366.733,308.277z"/>
	</g>
</g>
</svg>
